<svg xmlns="http://www.w3.org/2000/svg" width="181.58" height="25.947" viewBox="0 0 181.58 25.947"><defs><style>.a{fill:#fff;}</style></defs><path class="a" d="M244.737,83.845a3.8,3.8,0,0,1,.284-1.447,3.711,3.711,0,0,1,.8-1.189,3.852,3.852,0,0,1,1.189-.8,3.447,3.447,0,0,1,1.447-.284,3.8,3.8,0,0,1,1.447.284,3.749,3.749,0,0,1,1.99,1.99,3.447,3.447,0,0,1,.284,1.447,3.8,3.8,0,0,1-.284,1.447,3.711,3.711,0,0,1-.8,1.189,3.852,3.852,0,0,1-1.189.8,3.447,3.447,0,0,1-1.447.284,3.8,3.8,0,0,1-1.447-.284,3.711,3.711,0,0,1-1.189-.8,3.852,3.852,0,0,1-.8-1.189A3.8,3.8,0,0,1,244.737,83.845Zm6.719,0a3.142,3.142,0,0,0-.233-1.189,3.037,3.037,0,0,0-1.6-1.6,3.024,3.024,0,0,0-2.326,0,3.037,3.037,0,0,0-1.6,1.6,3.048,3.048,0,0,0-.233,1.189,3.142,3.142,0,0,0,.233,1.189,3.088,3.088,0,0,0,.646.982,2.722,2.722,0,0,0,.956.646,3.024,3.024,0,0,0,2.326,0,3.464,3.464,0,0,0,.956-.646,3.243,3.243,0,0,0,.646-.982A3.142,3.142,0,0,0,251.457,83.845Zm-4.316,1.887v-3.8h1.447c.879,0,1.292.362,1.292,1.06a1.252,1.252,0,0,1-.078.465.929.929,0,0,1-.207.31,1.3,1.3,0,0,1-.31.207,1.7,1.7,0,0,1-.388.1l1.085,1.654h-.7L248.2,84.078h-.465v1.654Zm.594-3.256v1.06h.672a1.548,1.548,0,0,0,.672-.129.437.437,0,0,0,.207-.439.381.381,0,0,0-.207-.388.99.99,0,0,0-.491-.129l-.853.026ZM83.548,61.8H70.6V87.67H83.522a12.935,12.935,0,0,0,.026-25.87Zm0,20.7H75.795V66.969h7.753a7.766,7.766,0,0,1,0,15.532Zm56.986-8.529a7.56,7.56,0,0,0,1.344-4.316,7.9,7.9,0,0,0-7.986-7.779H117.145v25.87h18.323a7.9,7.9,0,0,0,7.986-7.779A7.519,7.519,0,0,0,140.534,73.973Zm-17.987-6.849h11.346a2.69,2.69,0,0,1,0,5.376H122.547V67.124Zm12.948,15.351H122.547V77.2h12.922a2.62,2.62,0,0,1,2.584,2.636A2.582,2.582,0,0,1,135.494,82.475ZM164.1,61.852v25.87h25.741V85.938H165.887V61.852Zm72.1,1.318-1.189-1.189-11.6,11.6L211.657,61.852l-1.189,1.189,11.759,11.733L210.468,86.507l1.189,1.189,11.759-11.733,11.6,11.6,1.189-1.189-11.6-11.6Z" transform="translate(-70.6 -61.8)"/></svg>